<?xml version="1.0" encoding="utf-8"?>
<!-- Generator: Adobe Illustrator 27.5.0, SVG Export Plug-In . SVG Version: 6.00 Build 0)  -->
<svg version="1.1" xmlns="http://www.w3.org/2000/svg" xmlns:xlink="http://www.w3.org/1999/xlink" x="0px" y="0px"
	 viewBox="0 0 500 500" style="enable-background:new 0 0 500 500;" xml:space="preserve">
<g id="BACKGROUND">
	<g>
		<rect x="-0.021" style="fill:#39302D;" width="500.021" height="500.021"/>
	</g>
</g>
<g id="OBJECTS">
	<g>
		<text transform="matrix(1 0 0 1 197.4941 310.1523)" style="fill:#E1A921; font-family:'Milkshake'; font-size:50.3417px;">shop</text>
		<g>
			<path style="fill:#EDD1AD;" d="M300.166,96.397c-1.776-5.028-4.915-8.818-9.084-11.908c-3.239-2.4-7.005-3.41-10.884-4.28
				c-6.275-1.407-12.643-1.899-19.021-2.322c-1.635-0.108-14.951,0.379-25.376-0.146c-2.65-0.134-7.61,0.153-10.256,0.616
				c-2.66,0.466-5.215,1.506-7.86,2.098c-3.169,0.709-5.937,2.098-8.231,4.363c-3.612,3.566-6.651,7.519-6.979,12.831
				c-0.233,3.77-0.331,7.565-0.166,11.334c0.082,1.867,0.714,3.772,1.41,5.537c1.931,4.893,5.344,8.749,9.089,12.328
				c1.826,1.745,3.605,3.564,5.602,5.093c0.306,0.235,0.594,1.04,0.603,1.906c0.021,2.002,0.254,8.757,0.178,11.219
				c-0.183,5.969-0.427,11.937-0.565,17.908c-0.066,2.848,0.608,3.672,3.345,4.039c3.125,0.418,6.272,0.855,9.415,0.903
				c3.766,0.057,7.537-0.368,11.309-0.442c9.235-0.18,18.472-0.275,27.707-0.408c1.846-0.027,3.694-0.042,5.538-0.112
				c1.206-0.046,1.858-0.595,2.001-1.936c0.399-3.74,1.017-7.457,1.396-11.198c0.185-1.823,0.357-5.287,0.032-5.522
				c-0.647,0.163-0.903,11.639-2.511,17.498c-4.515-0.177-19.104-0.182-19.104-0.182l-0.694-1.859l-0.246,1.769l-0.985,0.022
				l-2.15-2.418c0.111,0.592,0.604,2.392,0.604,2.392l-1.852,0.006c-0.46-1.014-1.014-3.204-1.014-3.204l-0.103,3.18l-0.733,0.025
				l-1.622-3.484c0.224,1.248,0.297,3.438,0.297,3.438l-0.594,0.029c-0.511-1.112-1.689-4.131-1.689-4.131
				c0.141,1.018,0.208,3.104,0.349,4.122l-1.068-0.059l-1.302-4.325l0.209,4.321l-0.989,0.064l-1.865-4.724l0.418,4.653
				l-1.132,0.105l-1.137-5.006l0.046,4.837l-1.049,0.002l-1.737-5.518l0.219,5.498l-0.905,0.085
				c-0.753-1.913-1.797-6.695-1.797-6.695l0.081,6.718l-0.772,0.106c0,0-1.371-7.254-1.501-7.234l-0.086,7.115l-0.82,0.038
				c-0.605-2.045-1.152-7.839-1.152-7.839c-0.134,1.417-0.232,7.864-0.232,7.864l-0.586-0.054c0,0-0.715-6.21-1.488-8.345
				c0,1.587,0.067,8.218,0.067,8.218l-0.708,0.022c-0.73-2.434-1.662-9.49-1.662-9.49c0.089,2.7,0.241,9.38,0.241,9.38l-0.858-0.156
				l-1.238-10.034c-0.119,2.474-0.042,9.857-0.042,9.857s-3.266-0.235-3.314-0.758c-0.52-5.746-0.16-12.856-0.342-17.599
				c-0.154-4.021,0.053-8.928-0.13-12.947c1.56-0.202,8.75,0.406,10.701,0.184c3.376-0.384,6.661,0.11,9.989,0.268
				c3.241,0.154,6.492,0.095,9.739,0.093c1.557-0.001,3.157-0.341,4.665-0.09c4.976,0.827,9.945,1.003,14.964,0.553
				c3.121-0.28,6.26-0.369,9.102-0.528c3.602-3.507,6.936-7.1,10.632-10.268c5.483-4.701,8.495-10.846,10.675-17.445
				C302.247,103.064,301.343,99.73,300.166,96.397z M299.058,107.031c-2.237,6.314-5.844,12.397-7.212,13.829
				c-2.836,2.968-8.323,8.214-11.432,10.967c8.492-11.952,14.514-19.103,14.421-19.761c-0.236-1.672-1.964-0.283-2.543,0.503
				c-2.437,3.304-4.943,6.562-7.251,9.954c-2.358,3.464-4.29,6.711-6.575,10.314l-5.578-0.091c2.252-2.681,4.19-4.692,6.158-7.402
				c3.075-4.234,6.803-8.747,9.094-13.538c1.169-2.445,4.788-7.399,3.479-7.957c-2.074-0.884-6.382,9.106-8.659,12.719
				c-3.167,5.024-7.202,11.745-11.183,16.237l-4.985-0.179c1.479-1.971,2.885-3.809,4.253-5.675
				c3.477-4.746,9.91-14.871,12.777-25.419c0.385-1.417,0.999-4.469-0.098-4.601c-1.285-0.154-3.625,8.257-4.458,10.827
				c-2.421,7.465-6.096,14.296-10.412,20.805c-0.957,1.443-2.038,2.803-2.991,4.104c-1.971,0-3.786,0-5.786,0
				c1.766-3.902,3.56-7.574,5.103-11.349c1.82-4.452,3.567-8.945,5.064-13.512c0.866-2.64,1.168-5.463,1.742-8.201
				c0.251-1.198,2.118-11.465,0.105-10.649c-0.577,0.234-1.704,9.515-2.067,11.915c-0.473,3.12-5.339,19.915-7.789,25.274
				c-0.98,2.143-1.985,4.274-3.089,6.646l-6.318-0.43c5.423-10.8,9.797-33.014,8.72-33.737c-1.302-0.875-1.776,0.897-1.928,1.896
				c-0.462,3.033-0.817,6.082-1.196,9.128c-0.237,1.908-0.368,3.831-0.682,5.727c-0.683,4.118-3.976,13.688-5.886,16.598
				c-2.921,0-5.799,0-9.009,0c1.015-5.873,2.251-11.477,2.888-17.147c0.642-5.718,1.113-12.323,0.997-17.321
				c-0.031-1.338-2.071-0.146-2.196,1.125c-0.18,1.834-0.288,3.677-0.358,5.519c-0.199,5.272-0.236,10.554-0.588,15.815
				c-0.222,3.31-0.824,6.602-1.396,9.877c-0.382,2.188-0.72,2.362-2.988,2.496c-1.405,0.083-2.81,0.182-4.216,0.205
				c-0.756,0.013-1.515-0.118-2.199-0.177c-1.645-10.58-0.715-31.47-2.446-31.398c-1.462,0.061,0.388,20.922,1.556,31.335
				c-0.522,0.188-10.571,1.021-11.358-0.819c-1.279-2.581-2.716-5.084-3.96-7.68c-1.938-4.044-2.878-8.421-4.049-12.718
				c-0.998-3.108-0.973-7.883-0.823-11.212c0.012-0.269-0.162-0.775-0.521-0.869c-0.361-0.094-0.721,0.275-0.743,0.425
				c-0.355,2.405-0.451,7.267-0.049,10.091c1.776,12.479,7.211,19.439,7.027,20.053c-0.502-0.463-0.999-0.933-1.508-1.388
				c-5.114-4.566-8.889-10.08-11.219-16.5c-1.041-2.868-0.861-10.427-0.847-11.128c0.117-6.153,2.792-11.091,7.217-15.191
				c1.866-1.728,4.229-2.415,6.802-2.914c-0.105,1.235-0.461,5.406-0.461,5.406c0.868-1.203,2.808-6.067,2.808-6.067l1.658-0.515
				c0,0-0.3,1.993-1.217,5.573c0.989-1.481,2.999-6.206,2.999-6.206l1.093-0.355c0,0-1.029,3.775-1.408,5.415
				c1.903-3.319,2.817-5.621,2.817-5.621l0.87-0.219c0,0-0.416,3.303-0.441,5.2c0.546-1.469,1.731-5.339,1.731-5.339l0.873-0.057
				c0,0-0.75,4.735-0.664,4.773c0.713-1.513,1.91-4.859,1.91-4.859l0.788-0.029c-0.259,1.195-0.556,4.254-0.556,4.254
				c0.842-2.092,1.38-4.354,1.38-4.354l1.29-0.025c-0.455,1.594-0.403,2.594-0.583,4.188c0.636-1.591,1.244-3.188,1.674-4.262
				c2.18,0.204,24.885-0.366,32.236,0.122c11.193,1.394,24.483,3.34,30.341,14.778c0.789,1.754,1.657,3.495,2.221,5.324
				C299.982,102.037,299.946,104.522,299.058,107.031z"/>
			<path style="fill:#EDD1AD;" d="M279.564,147.17c-0.431-0.186-0.092-3.417-0.094-6.063c-0.001-1.299,0.049-4.207,0.575-4.083
				C280.044,139.704,280.047,144.633,279.564,147.17z"/>
			<path style="fill:#EDD1AD;" d="M220.063,100.741c0.41-4.934,1.717-10.868,0.321-8.368c-3.654,6.546-1.088,25.159,3.518,37.205
				c0.505,0-1.734-8.593-2.282-11.046C220.273,112.51,219.853,103.268,220.063,100.741z"/>
		</g>
		<text transform="matrix(1 0 0 1 230.5757 196.5913)" style="fill:#EDD1AD; font-family:'Quicksand-Bold'; font-size:20.7747px;">The</text>
		<text transform="matrix(1 0 0 1 121.689 265.9238)" style="fill:#EE9691; font-family:'ChunkFive-Roman'; font-size:78.3109px;">BAKERY</text>
		<g>
			<g>
				<path style="fill:#E1A921;" d="M202.366,189.554c0,0,1.675-2.207-0.433-8.677c-2.108-6.47-4.432-8.74-5.691-10.581
					c-1.259-1.841-3.271-3.938-3.432-0.645c-0.16,3.293,0.929,10.031,4.011,14.506S202.366,189.554,202.366,189.554z"/>
				<path style="fill:#E1A921;" d="M207.069,192.554c0,0-1.582-2.275-8.387-2.267c-6.805,0.008-9.682,1.518-11.821,2.147
					c-2.14,0.629-4.756,1.896-1.673,3.065s9.828,2.213,15.036,0.663C205.432,194.612,207.069,192.554,207.069,192.554z"/>
				<path style="fill:#E1A921;" d="M192.772,187.576c0,0-1.087-2.548-7.752-3.922c-6.665-1.374-9.788-0.48-12.011-0.298
					s-5.042,0.891-2.26,2.662c2.782,1.771,9.174,4.162,14.588,3.702C190.752,189.259,192.772,187.576,192.772,187.576z"/>
				<path style="fill:#E1A921;" d="M178.17,180.113c0,0-0.93-2.61-7.499-4.386c-6.569-1.776-9.741-1.073-11.971-1.027
					c-2.23,0.046-5.086,0.583-2.417,2.519s8.904,4.711,14.336,4.581S178.17,180.113,178.17,180.113z"/>
				<path style="fill:#E1A921;" d="M165.143,170.734c0,0-0.551-2.715-6.801-5.405c-6.251-2.69-9.49-2.444-11.704-2.715
					c-2.214-0.271-5.118-0.144-2.75,2.151s8.145,5.927,13.541,6.569C162.824,171.975,165.143,170.734,165.143,170.734z"/>
				<path style="fill:#E1A921;" d="M154.054,160.926c0,0,0.443-2.735-4.455-7.458c-4.898-4.724-8.016-5.637-9.992-6.672
					c-1.975-1.035-4.737-1.942-3.333,1.042s5.529,8.421,10.351,10.926C151.447,161.268,154.054,160.926,154.054,160.926z"/>
				<path style="fill:#E1A921;" d="M151,151.329c0,0,1.344-2.423-1.665-8.527c-3.008-6.104-5.632-8.02-7.14-9.663
					c-1.508-1.643-3.799-3.432-3.489-0.149c0.311,3.283,2.349,9.796,6.037,13.787C148.431,150.769,151,151.329,151,151.329z"/>
				<path style="fill:#E1A921;" d="M190.51,184.082c0,0,1.905-2.012,0.512-8.672c-1.393-6.661-3.456-9.17-4.508-11.137
					c-1.051-1.967-2.824-4.27-3.341-1.014c-0.517,3.257-0.166,10.072,2.411,14.856C188.162,182.899,190.51,184.082,190.51,184.082z"
					/>
				<path style="fill:#E1A921;" d="M180.184,178.222c0,0,1.893-2.023,0.462-8.675s-3.51-9.15-4.573-11.11
					c-1.063-1.961-2.849-4.254-3.347-0.994c-0.498,3.26-0.107,10.073,2.498,14.842C177.829,177.053,180.184,178.222,180.184,178.222
					z"/>
				<path style="fill:#E1A921;" d="M169.17,173.18c0,0,2.043-1.871,1.127-8.614c-0.916-6.743-2.796-9.393-3.705-11.429
					c-0.909-2.036-2.514-4.46-3.261-1.249c-0.747,3.212-0.881,10.035,1.349,14.99S169.17,173.18,169.17,173.18z"/>
				<path style="fill:#E1A921;" d="M158.923,162.968c0,0,2.042-1.873,1.12-8.615c-0.922-6.742-2.804-9.39-3.715-11.426
					c-0.911-2.036-2.517-4.458-3.262-1.246s-0.873,10.036,1.362,14.989C156.664,161.623,158.923,162.968,158.923,162.968z"/>
				<path style="fill:#E1A921;" d="M297.634,189.554c0,0-1.675-2.207,0.433-8.677c2.108-6.47,4.432-8.74,5.691-10.581
					c1.259-1.841,3.271-3.938,3.432-0.645c0.16,3.293-0.929,10.031-4.011,14.506S297.634,189.554,297.634,189.554z"/>
				<path style="fill:#E1A921;" d="M292.931,192.554c0,0,1.582-2.275,8.387-2.267c6.805,0.008,9.682,1.518,11.821,2.147
					s4.756,1.896,1.673,3.065c-3.083,1.169-9.828,2.213-15.036,0.663C294.568,194.612,292.931,192.554,292.931,192.554z"/>
				<path style="fill:#E1A921;" d="M307.228,187.576c0,0,1.087-2.548,7.752-3.922c6.665-1.374,9.788-0.48,12.011-0.298
					s5.042,0.891,2.26,2.662c-2.782,1.771-9.174,4.162-14.588,3.702C309.248,189.259,307.228,187.576,307.228,187.576z"/>
				<path style="fill:#E1A921;" d="M321.83,180.113c0,0,0.93-2.61,7.499-4.386c6.569-1.776,9.741-1.073,11.971-1.027
					c2.23,0.046,5.086,0.583,2.417,2.519s-8.904,4.711-14.336,4.581C323.949,181.671,321.83,180.113,321.83,180.113z"/>
				<path style="fill:#E1A921;" d="M334.857,170.734c0,0,0.551-2.715,6.801-5.405c6.251-2.69,9.49-2.444,11.704-2.715
					c2.214-0.271,5.118-0.144,2.75,2.151s-8.146,5.927-13.541,6.569C337.176,171.975,334.857,170.734,334.857,170.734z"/>
				<path style="fill:#E1A921;" d="M345.946,160.926c0,0-0.443-2.735,4.455-7.458c4.898-4.724,8.016-5.637,9.992-6.672
					s4.737-1.942,3.333,1.042s-5.529,8.421-10.351,10.926C348.553,161.268,345.946,160.926,345.946,160.926z"/>
				<path style="fill:#E1A921;" d="M349,151.329c0,0-1.344-2.423,1.665-8.527s5.632-8.02,7.14-9.663
					c1.508-1.643,3.799-3.432,3.489-0.149c-0.311,3.283-2.349,9.796-6.037,13.787C351.569,150.769,349,151.329,349,151.329z"/>
				<path style="fill:#E1A921;" d="M309.49,184.082c0,0-1.905-2.012-0.512-8.672c1.393-6.661,3.456-9.17,4.508-11.137
					c1.051-1.967,2.824-4.27,3.341-1.014c0.517,3.257,0.166,10.072-2.411,14.856C311.838,182.899,309.49,184.082,309.49,184.082z"/>
				<path style="fill:#E1A921;" d="M319.816,178.222c0,0-1.893-2.023-0.462-8.675c1.432-6.653,3.51-9.15,4.573-11.11
					c1.063-1.961,2.849-4.254,3.347-0.994c0.498,3.26,0.107,10.073-2.498,14.842C322.171,177.053,319.816,178.222,319.816,178.222z"
					/>
				<path style="fill:#E1A921;" d="M330.83,173.18c0,0-2.043-1.871-1.127-8.614c0.916-6.743,2.796-9.393,3.705-11.429
					c0.909-2.036,2.514-4.46,3.261-1.249c0.747,3.212,0.881,10.035-1.349,14.99S330.83,173.18,330.83,173.18z"/>
				<path style="fill:#E1A921;" d="M341.077,162.968c0,0-2.042-1.873-1.12-8.615c0.922-6.742,2.804-9.39,3.715-11.426
					c0.911-2.036,2.517-4.458,3.262-1.246s0.873,10.036-1.362,14.989C343.337,161.623,341.077,162.968,341.077,162.968z"/>
			</g>
		</g>
		<g>
			<path style="fill:#EDD1AD;" d="M142.819,380.874c-2.268-0.775,15.323-26.045,18.938-31.034
				c3.411-4.708,23.505-27.504,24.408-27.421c0.231,0.021-15.339,21.23-18.258,25.366
				C164.867,352.091,144.212,381.35,142.819,380.874z"/>
			<path style="fill:#EDD1AD;" d="M82.282,291.852c0.003-3.983,37.837-8.638,42.689-9.248c6.339-0.797,26.542-3.006,28.634-2.225
				c0.147,1.202-36.234,7.013-39.944,7.642C108.392,288.913,82.282,293.143,82.282,291.852z"/>
			<path style="fill:#EDD1AD;" d="M136.922,319.262c4.077-2.286,30.011-15.994,30.755-15.904c-0.441,0.5-30.64,18.396-34.387,20.614
				c-3.283,1.943-28.691,16.872-30.065,16.426C101.951,339.985,133.659,321.092,136.922,319.262z"/>
			<path style="fill:#EDD1AD;" d="M342.075,389.073c-0.582,1.011-21.019-26.035-23.754-30.142
				c-2.799-4.201-17.807-24.217-16.611-25.16c1.021-0.805,15.987,19.377,20.838,26.005
				C326.145,364.691,343.154,387.196,342.075,389.073z"/>
			<path style="fill:#EDD1AD;" d="M193.171,369.902c1.694-3.527,17.182-33.066,18.129-32.9c2.139,0.376-11.609,26.074-13.044,29.145
				c-2.029,4.342-16.229,34.207-18.107,33.083C178.363,398.162,191.285,373.831,193.171,369.902z"/>
			<path style="fill:#EDD1AD;" d="M300.836,398.952c-2.096,0.083-10.352-22.253-12.164-27.065
				c-1.261-3.348-11.094-27.82-9.694-28.705C280.222,342.395,302.373,398.891,300.836,398.952z"/>
			<path style="fill:#EDD1AD;" d="M380.455,360.101c-0.387,0.916-28.825-16.556-34.404-20.432
				c-4.131-2.87-22.63-17.198-22.265-17.699c0.43-0.591,21.049,13.775,23.832,15.68
				C351.564,340.351,381.039,358.718,380.455,360.101z"/>
			<path style="fill:#EDD1AD;" d="M228.129,370.992c-0.909,3.901-7.102,29.265-8.136,28.375c-1.871-1.611,2.896-18.212,4.235-25.016
				c0.837-4.252,7.008-30.781,9.126-30.065C234.391,344.636,229.35,365.748,228.129,370.992z"/>
			<path style="fill:#EDD1AD;" d="M403.085,320.02c-0.288,0.679-27.467-6.965-30.768-7.809c-5.164-1.32-29.058-8.111-29.341-9.627
				c-0.353-1.891,30.029,6.781,33.071,7.57C380.441,311.292,404.019,317.815,403.085,320.02z"/>
			<path style="fill:#EDD1AD;" d="M265.629,400.982c-1.979,0.807-6.6-27.688-7.342-31.822c-0.726-4.049-3.695-23.227-2.33-23.306
				c0.774-0.045,2.97,14.101,4.766,23.289C261.4,372.608,266.822,400.496,265.629,400.982z"/>
			<path style="fill:#EDD1AD;" d="M382.086,282.562c-5.457-0.756-26.427-3.402-26.227-4.863c0.059-0.435,19.27,1.631,25.653,2.629
				c4.747,0.742,28.459,4.233,28.459,5.236C409.972,286.8,384.496,282.896,382.086,282.562z"/>
			<path style="fill:#EDD1AD;" d="M164.822,322.419c1.915-1.774,11.648-10.456,12.205-9.035c0.419,1.07-8.72,9.216-12.208,12.53
				c-3.651,3.468-12.376,11.938-13.277,11.842C151.276,337.727,161.691,325.32,164.822,322.419z"/>
			<path style="fill:#EDD1AD;" d="M197.641,329.574c0.673,0.612-6.008,11.805-8.631,17.126c-1.385,2.809-6.679,12.291-7.93,10.895
				c-0.731-0.816,3.834-9.119,5.407-12.23C188.007,342.356,196.869,328.873,197.641,329.574z"/>
			<path style="fill:#EDD1AD;" d="M139.521,297.572c-2.932,0.79-12.185,3.056-12.185,2.226c0-0.796,10.176-3.182,15.233-4.65
				c4.535-1.317,14.676-4.244,15.069-3.955C157.843,291.345,144.233,296.303,139.521,297.572z"/>
			<path style="fill:#EDD1AD;" d="M291.588,339.6c0.971-0.243,5.314,9.745,6.999,13.38c0.768,1.656,3.305,7.102,2.859,8.412
				c-0.37-0.157-3.971-5.761-5.444-8.52C294.989,350.973,289.877,340.027,291.588,339.6z"/>
			<path style="fill:#EDD1AD;" d="M244.265,346.454c1.427,0.23,0.303,25.376-0.385,25.433
				C242.893,371.969,242.373,346.149,244.265,346.454z"/>
			<path style="fill:#EDD1AD;" d="M210.941,370.953c-1.126-0.841,9.944-30.545,11.301-29.718c0.4,0.244-3.909,12.813-4.467,14.177
				C216.122,359.452,211.255,371.188,210.941,370.953z"/>
			<path style="fill:#EDD1AD;" d="M332.637,312.362c0.213-0.28,20.678,7.658,20.675,8.961
				C353.307,323.873,331.417,313.961,332.637,312.362z"/>
			<path style="fill:#EDD1AD;" d="M324.134,334.842c4.79,4.472,13.184,13.327,12.307,13.865c-0.782,0.48-22.863-19.028-22.102-20.29
				C314.788,327.673,322.018,332.866,324.134,334.842z"/>
			<path style="fill:#EDD1AD;" d="M373.939,297.249c-0.983,0.81-25.245-4.901-24.605-7.139
				C349.991,287.815,374.091,297.125,373.939,297.249z"/>
			<path style="fill:#EDD1AD;" d="M271.038,362.161c-0.743,0.171-2.334-5.085-2.878-7.016c-0.47-1.67-2.484-8.561-1.127-9.478
				C268.049,344.978,271.71,362.006,271.038,362.161z"/>
			<path style="fill:#EDD1AD;" d="M138.126,349.067c-0.299-0.324,7.988-8.384,8.66-7.735c0.322,0.311-2.398,3.411-3.72,4.776
				C141.794,347.422,138.459,349.429,138.126,349.067z"/>
			<path style="fill:#EDD1AD;" d="M310.767,377.957c-0.811,0.156-5.602-7.97-4.442-8.272
				C306.701,369.587,311.207,377.872,310.767,377.957z"/>
			<path style="fill:#EDD1AD;" d="M175.343,367.852c-1.055-0.624,2.985-6.558,3.847-6.15
				C180.579,362.359,176.519,368.548,175.343,367.852z"/>
			<path style="fill:#EDD1AD;" d="M390.779,301.157c-0.456,0.594-7.233-0.955-7.233-1.732
				C383.545,298.746,391.461,300.268,390.779,301.157z"/>
			<path style="fill:#EDD1AD;" d="M135.894,351.762c0.115,0.833-3.157,3.821-3.514,3.351
				C131.957,354.654,135.823,351.246,135.894,351.762z"/>
		</g>
	</g>
</g>
</svg>
